# Blender v2.79 (sub 0) OBJ File: ''
# www.blender.org
mtllib nose1.mtl
o Plane.001_Plane.009
v 0.433129 0.379304 -0.219986
v 0.391867 0.319124 -0.181432
v 0.425868 0.280113 -0.206733
v 0.473638 0.297403 -0.228885
v 0.101246 0.618600 0.034506
v 0.025997 0.620550 0.062552
v 0.025997 0.525538 0.146983
v 0.105498 0.525023 0.115993
v 0.262163 0.537497 -0.116020
v 0.266019 0.446606 -0.052665
v 0.307389 0.416719 -0.095320
v 0.308095 0.502588 -0.157444
v 0.218259 0.569165 -0.068226
v 0.219925 0.478190 -0.000619
v 0.353352 0.368918 -0.142938
v 0.371966 0.448651 -0.196166
v 0.427263 0.122671 -0.224449
v 0.382365 0.147815 -0.185518
v 0.344999 0.100920 -0.169609
v 0.380376 0.069344 -0.208267
v 0.274415 0.062609 -0.144108
v 0.306322 0.019533 -0.163216
v 0.245001 -0.003225 -0.138068
v 0.226900 0.042322 -0.139420
v 0.181589 0.024491 -0.130428
v 0.195157 -0.016645 -0.118785
v 0.130288 0.011214 -0.107505
v 0.146408 -0.032019 -0.099519
v 0.165768 0.078803 -0.113031
v 0.118678 0.060176 -0.092020
v 0.110080 -0.040423 -0.089618
v 0.100954 0.004920 -0.092149
v 0.070614 -0.001258 -0.081194
v 0.073386 -0.045514 -0.089076
v 0.025997 -0.005588 -0.081481
v 0.025997 -0.044676 -0.097875
v 0.145273 0.124027 -0.094668
v 0.099543 0.105631 -0.055935
v 0.131076 0.176710 -0.087028
v 0.096240 0.167099 -0.051325
v 0.204166 0.131065 -0.068616
v 0.181491 0.195799 -0.071767
v 0.225405 0.166859 -0.012752
v 0.197111 0.210590 -0.015181
v 0.219954 0.181698 0.043990
v 0.190543 0.213709 0.038660
v 0.201245 0.195960 0.093506
v 0.172450 0.222932 0.080875
v 0.165448 0.196285 0.143425
v 0.143725 0.234216 0.118675
v 0.115122 0.188273 0.129508
v 0.101772 0.234205 0.118501
v 0.085659 0.161576 0.081316
v 0.070053 0.213224 0.076291
v 0.079825 0.133772 0.024484
v 0.067845 0.186256 0.018463
v 0.389820 0.244894 -0.137953
v 0.411125 0.208583 -0.196720
v 0.461658 0.193246 -0.228211
v 0.376451 0.180823 -0.113227
v 0.366486 0.291888 -0.072862
v 0.359383 0.226713 -0.031643
v 0.326257 0.331795 -0.015514
v 0.327092 0.263236 0.035460
v 0.285851 0.354316 0.035756
v 0.289459 0.282173 0.089639
v 0.244773 0.298178 0.149303
v 0.237458 0.374585 0.093085
v 0.191045 0.395143 0.152252
v 0.199029 0.313170 0.206418
v 0.123583 0.417995 0.230459
v 0.129608 0.330646 0.278373
v 0.025997 0.420020 0.266088
v 0.025997 0.339450 0.309853
v 0.172795 0.596713 -0.018561
v 0.175139 0.506085 0.052505
v 0.337656 0.126322 -0.083809
v 0.256975 0.098241 -0.070585
v 0.325903 0.174991 0.000285
v 0.269690 0.144306 0.003052
v 0.302488 0.207060 0.065547
v 0.258062 0.172402 0.061337
v 0.025997 0.275759 0.298555
v 0.117568 0.265149 0.274377
v 0.275925 0.224321 0.114333
v 0.236304 0.188515 0.107319
v 0.203250 0.200719 0.157472
v 0.235706 0.238022 0.166095
v 0.190496 0.252523 0.218051
v 0.166152 0.206109 0.203128
v 0.103063 0.211134 0.248875
v 0.025997 0.210010 0.265193
v 0.092705 0.168039 0.215368
v 0.025997 0.168699 0.224727
v 0.025997 0.138940 0.180884
v 0.085187 0.137028 0.173759
v 0.025997 0.108128 0.120910
v 0.075576 0.110449 0.113963
v 0.070201 0.087473 0.046911
v 0.025997 0.082746 0.052188
v 0.025997 0.057046 -0.004520
v 0.069935 0.064233 -0.011347
v 0.088086 0.081225 -0.030498
v 0.070325 0.033277 -0.054543
v 0.096659 0.046520 -0.072099
v 0.213146 0.086525 -0.096976
v 0.025997 0.028432 -0.048697
v 0.081888 0.107281 0.037085
v 0.092049 0.131299 0.098225
v 0.116941 0.154964 0.147061
v 0.141289 0.176131 0.178574
v 0.145480 0.247764 0.000159
v 0.141955 0.238974 -0.054439
v 0.086521 0.210672 -0.030504
v 0.070419 0.232078 0.025000
v 0.110179 0.226679 -0.051534
v 0.072365 0.254112 0.067118
v 0.090699 0.259595 0.103589
v 0.120199 0.259891 0.094831
v 0.147391 0.251969 0.075254
v 0.152825 0.250810 0.045040
v 0.103991 0.262266 0.005168
v 0.107272 0.265037 0.056856
v -0.381135 0.379304 -0.219986
v -0.421645 0.297403 -0.228885
v -0.373874 0.280113 -0.206733
v -0.339873 0.319124 -0.181431
v -0.049252 0.618600 0.034506
v -0.053504 0.525023 0.115993
v -0.210169 0.537497 -0.116020
v -0.256101 0.502588 -0.157444
v -0.255395 0.416719 -0.095320
v -0.214025 0.446606 -0.052664
v -0.166265 0.569165 -0.068226
v -0.167932 0.478190 -0.000619
v -0.319972 0.448651 -0.196166
v -0.301358 0.368918 -0.142937
v -0.375269 0.122671 -0.224449
v -0.328382 0.069344 -0.208266
v -0.293005 0.100920 -0.169609
v -0.330372 0.147815 -0.185517
v -0.254328 0.019533 -0.163216
v -0.222421 0.062608 -0.144108
v -0.193007 -0.003225 -0.138068
v -0.143163 -0.016645 -0.118784
v -0.129595 0.024490 -0.130428
v -0.174906 0.042322 -0.139419
v -0.094414 -0.032019 -0.099519
v -0.078294 0.011214 -0.107505
v -0.066684 0.060176 -0.092020
v -0.113774 0.078803 -0.113031
v -0.058086 -0.040423 -0.089618
v -0.021392 -0.045514 -0.089076
v -0.018621 -0.001258 -0.081194
v -0.048960 0.004920 -0.092149
v -0.047550 0.105631 -0.055935
v -0.093279 0.124027 -0.094668
v -0.044246 0.167099 -0.051325
v -0.079082 0.176710 -0.087028
v -0.129497 0.195799 -0.071767
v -0.152172 0.131065 -0.068615
v -0.145117 0.210590 -0.015181
v -0.173411 0.166859 -0.012751
v -0.138549 0.213709 0.038660
v -0.167960 0.181698 0.043991
v -0.120456 0.222932 0.080875
v -0.149252 0.195960 0.093507
v -0.091731 0.234215 0.118675
v -0.113455 0.196285 0.143425
v -0.049779 0.234205 0.118501
v -0.063128 0.188273 0.129509
v -0.018059 0.213224 0.076291
v -0.033665 0.161576 0.081316
v -0.015851 0.186256 0.018464
v -0.027831 0.133772 0.024484
v -0.337826 0.244894 -0.137953
v -0.359131 0.208583 -0.196720
v -0.409664 0.193246 -0.228210
v -0.324458 0.180823 -0.113226
v -0.307389 0.226713 -0.031643
v -0.314492 0.291888 -0.072862
v -0.275098 0.263236 0.035461
v -0.274263 0.331795 -0.015513
v -0.237465 0.282173 0.089639
v -0.233857 0.354316 0.035756
v -0.192779 0.298178 0.149304
v -0.147035 0.313170 0.206418
v -0.139051 0.395143 0.152252
v -0.185464 0.374585 0.093085
v -0.077615 0.330646 0.278373
v -0.071589 0.417995 0.230460
v -0.120802 0.596713 -0.018561
v -0.123145 0.506085 0.052505
v -0.204981 0.098241 -0.070585
v -0.285662 0.126322 -0.083808
v -0.217696 0.144306 0.003052
v -0.273910 0.174991 0.000286
v -0.206068 0.172402 0.061337
v -0.250495 0.207060 0.065548
v -0.065575 0.265149 0.274377
v -0.184310 0.188515 0.107319
v -0.223931 0.224321 0.114334
v -0.151256 0.200719 0.157473
v -0.114158 0.206109 0.203128
v -0.138502 0.252523 0.218052
v -0.183712 0.238022 0.166095
v -0.051069 0.211134 0.248875
v -0.040711 0.168039 0.215368
v -0.033193 0.137028 0.173759
v -0.023582 0.110449 0.113963
v -0.018207 0.087473 0.046911
v -0.017941 0.064233 -0.011347
v -0.036092 0.081225 -0.030498
v -0.044665 0.046520 -0.072099
v -0.018331 0.033277 -0.054542
v -0.161153 0.086525 -0.096976
v -0.029894 0.107281 0.037085
v -0.040055 0.131299 0.098226
v -0.064947 0.154964 0.147061
v -0.089295 0.176131 0.178574
v -0.089961 0.238974 -0.054439
v -0.093486 0.247764 0.000159
v -0.018425 0.232078 0.025000
v -0.034527 0.210672 -0.030504
v -0.058185 0.226679 -0.051534
v -0.020371 0.254112 0.067118
v -0.038705 0.259595 0.103589
v -0.068205 0.259891 0.094831
v -0.095397 0.251969 0.075254
v -0.100831 0.250810 0.045040
v -0.051997 0.262266 0.005168
v -0.055278 0.265037 0.056857
vn 0.6101 0.1408 0.7797
vn 0.7773 0.1742 0.6045
vn 0.6391 0.0472 0.7677
vn 0.5001 0.0337 0.8653
vn 0.4862 0.5764 0.6568
vn 0.0000 0.6643 0.7475
vn 0.0000 0.7152 0.6989
vn 0.4715 0.6278 0.6193
vn 0.7838 0.3737 0.4960
vn 0.7750 0.4482 0.4455
vn 0.7869 0.4181 0.4539
vn 0.7630 0.3501 0.5434
vn 0.7906 0.3779 0.4818
vn 0.7775 0.4426 0.4467
vn 0.8085 0.3171 0.4958
vn 0.7201 0.2626 0.6422
vn 0.5590 -0.1991 0.8049
vn 0.7494 -0.3023 0.5891
vn 0.6442 -0.4389 0.6264
vn 0.5574 -0.2170 0.8014
vn 0.3866 -0.5115 0.7674
vn 0.4254 -0.1233 0.8966
vn 0.2475 0.0882 0.9649
vn 0.1961 -0.3040 0.9323
vn 0.2679 -0.0274 0.9631
vn 0.2533 0.2687 0.9293
vn 0.4239 0.0427 0.9047
vn 0.3024 0.2578 0.9177
vn 0.2094 -0.3792 0.9013
vn 0.6248 -0.1914 0.7569
vn 0.2465 0.0834 0.9656
vn 0.4252 -0.1164 0.8976
vn 0.1958 -0.3700 0.9082
vn 0.0451 -0.1621 0.9857
vn 0.0000 -0.4691 0.8831
vn -0.0000 -0.2822 0.9593
vn 0.2197 -0.2341 0.9471
vn 0.8457 -0.0640 0.5298
vn 0.2780 -0.2049 0.9385
vn 0.8410 -0.0068 0.5410
vn -0.4629 -0.4830 0.7433
vn -0.5042 -0.4763 0.7203
vn -0.6647 -0.6546 0.3601
vn -0.7356 -0.6457 0.2049
vn -0.5698 -0.8150 0.1057
vn -0.7099 -0.7035 -0.0325
vn -0.4347 -0.8995 -0.0444
vn -0.6688 -0.7054 -0.2348
vn 0.1152 -0.9394 -0.3228
vn -0.3076 -0.6500 -0.6949
vn 0.6650 -0.2747 -0.6945
vn 0.4634 -0.3009 -0.8335
vn 0.9382 0.0885 -0.3347
vn 0.9396 0.0550 -0.3379
vn 0.9945 0.0918 0.0512
vn 0.9900 0.0846 0.1127
vn 0.9371 0.0326 0.3476
vn 0.7362 -0.1024 0.6689
vn 0.5109 -0.0924 0.8547
vn 0.9071 -0.2902 0.3049
vn 0.9164 0.2422 0.3186
vn 0.9206 -0.0901 0.3799
vn 0.8336 0.3979 0.3830
vn 0.8761 0.1026 0.4712
vn 0.7782 0.4568 0.4309
vn 0.8234 0.2102 0.5271
vn 0.7945 0.2349 0.5599
vn 0.7674 0.4596 0.4471
vn 0.7341 0.4746 0.4857
vn 0.7539 0.2022 0.6251
vn 0.5012 0.5630 0.6571
vn 0.5184 0.1801 0.8360
vn 0.0000 0.6114 0.7913
vn 0.0000 0.1875 0.9823
vn 0.7198 0.4445 0.5332
vn 0.7157 0.4925 0.4951
vn 0.6533 -0.6510 0.3866
vn 0.0664 -0.8060 0.5882
vn 0.6974 -0.5364 0.4753
vn 0.0288 -0.8656 0.4999
vn 0.7316 -0.4182 0.5384
vn 0.1063 -0.9040 0.4141
vn 0.0000 -0.2870 0.9579
vn 0.4122 -0.2859 0.8651
vn 0.7327 -0.3352 0.5923
vn 0.2030 -0.9031 0.3784
vn 0.3835 -0.8409 0.3818
vn 0.7148 -0.2965 0.6334
vn 0.6523 -0.2691 0.7085
vn 0.5005 -0.6713 0.5468
vn 0.3163 -0.5714 0.7573
vn 0.0000 -0.5615 0.8275
vn 0.2899 -0.7544 0.5889
vn 0.0000 -0.7425 0.6699
vn -0.0000 -0.8604 0.5097
vn 0.3357 -0.8548 0.3957
vn -0.0000 -0.9234 0.3839
vn 0.4476 -0.8530 0.2684
vn 0.5400 -0.7917 0.2857
vn 0.0000 -0.9329 0.3602
vn 0.0000 -0.8790 0.4767
vn 0.5376 -0.7248 0.4309
vn 0.8886 -0.2925 0.3533
vn 0.4208 -0.6250 0.6575
vn 0.7048 -0.3169 0.6347
vn -0.0756 -0.6249 0.7770
vn 0.0000 -0.7477 0.6640
vn 0.9595 -0.2667 0.0908
vn 0.9223 -0.3720 -0.1046
vn 0.7411 -0.6628 -0.1066
vn 0.5276 -0.8302 0.1800
vn -0.3828 -0.9019 0.2002
vn -0.2065 -0.7918 0.5748
vn 0.8441 -0.2532 0.4727
vn 0.9015 -0.3800 0.2071
vn 0.4323 -0.5883 0.6835
vn 0.7937 -0.5934 -0.1339
vn 0.4734 -0.6862 -0.5523
vn -0.2042 -0.9039 -0.3759
vn -0.5339 -0.8275 -0.1738
vn -0.5210 -0.8535 -0.0075
vn 0.2857 -0.9099 0.3008
vn 0.0689 -0.9961 0.0555
vn -0.6101 0.1408 0.7797
vn -0.5001 0.0337 0.8653
vn -0.6391 0.0472 0.7677
vn -0.7773 0.1742 0.6045
vn -0.4862 0.5764 0.6568
vn -0.4715 0.6278 0.6193
vn -0.7838 0.3737 0.4960
vn -0.7630 0.3501 0.5434
vn -0.7869 0.4181 0.4539
vn -0.7750 0.4482 0.4455
vn -0.7906 0.3779 0.4818
vn -0.7775 0.4426 0.4467
vn -0.7201 0.2626 0.6422
vn -0.8085 0.3171 0.4958
vn -0.5590 -0.1991 0.8049
vn -0.5574 -0.2170 0.8014
vn -0.6442 -0.4389 0.6264
vn -0.7494 -0.3023 0.5891
vn -0.4254 -0.1233 0.8966
vn -0.3866 -0.5115 0.7674
vn -0.2475 0.0882 0.9649
vn -0.2533 0.2687 0.9293
vn -0.2679 -0.0274 0.9631
vn -0.1961 -0.3040 0.9323
vn -0.3024 0.2578 0.9177
vn -0.4239 0.0427 0.9047
vn -0.6248 -0.1914 0.7569
vn -0.2094 -0.3792 0.9013
vn -0.2465 0.0834 0.9656
vn -0.0451 -0.1621 0.9857
vn -0.1958 -0.3700 0.9082
vn -0.4253 -0.1164 0.8976
vn -0.8457 -0.0640 0.5298
vn -0.2197 -0.2341 0.9471
vn -0.8410 -0.0068 0.5410
vn -0.2780 -0.2049 0.9385
vn 0.5042 -0.4763 0.7203
vn 0.4629 -0.4830 0.7433
vn 0.7356 -0.6457 0.2049
vn 0.6647 -0.6546 0.3601
vn 0.7099 -0.7035 -0.0325
vn 0.5698 -0.8150 0.1057
vn 0.6688 -0.7054 -0.2348
vn 0.4347 -0.8995 -0.0444
vn 0.3076 -0.6500 -0.6949
vn -0.1152 -0.9394 -0.3228
vn -0.4634 -0.3009 -0.8335
vn -0.6650 -0.2747 -0.6945
vn -0.9396 0.0550 -0.3379
vn -0.9382 0.0884 -0.3347
vn -0.9900 0.0846 0.1127
vn -0.9945 0.0918 0.0512
vn -0.9371 0.0327 0.3475
vn -0.7362 -0.1024 0.6689
vn -0.5109 -0.0924 0.8547
vn -0.9071 -0.2902 0.3049
vn -0.9206 -0.0901 0.3799
vn -0.9164 0.2422 0.3186
vn -0.8761 0.1026 0.4712
vn -0.8336 0.3979 0.3830
vn -0.8234 0.2102 0.5271
vn -0.7782 0.4568 0.4309
vn -0.7945 0.2349 0.5599
vn -0.7539 0.2022 0.6251
vn -0.7341 0.4746 0.4857
vn -0.7674 0.4596 0.4471
vn -0.5184 0.1801 0.8360
vn -0.5012 0.5630 0.6571
vn -0.7198 0.4445 0.5332
vn -0.7157 0.4925 0.4951
vn -0.0664 -0.8060 0.5882
vn -0.6533 -0.6510 0.3866
vn -0.0288 -0.8656 0.4999
vn -0.6974 -0.5364 0.4753
vn -0.1063 -0.9040 0.4141
vn -0.7316 -0.4182 0.5384
vn -0.4122 -0.2859 0.8651
vn -0.2030 -0.9031 0.3784
vn -0.7327 -0.3352 0.5923
vn -0.3835 -0.8409 0.3818
vn -0.5005 -0.6713 0.5468
vn -0.6523 -0.2691 0.7085
vn -0.7148 -0.2965 0.6334
vn -0.3163 -0.5714 0.7573
vn -0.2899 -0.7544 0.5889
vn -0.3357 -0.8548 0.3957
vn -0.4476 -0.8530 0.2684
vn -0.5400 -0.7917 0.2857
vn -0.5376 -0.7248 0.4309
vn -0.8886 -0.2925 0.3533
vn -0.7048 -0.3169 0.6347
vn -0.4208 -0.6250 0.6575
vn 0.0756 -0.6249 0.7770
vn -0.9595 -0.2667 0.0908
vn -0.9223 -0.3720 -0.1046
vn -0.7411 -0.6628 -0.1066
vn -0.5276 -0.8302 0.1800
vn 0.2065 -0.7918 0.5748
vn 0.3828 -0.9019 0.2002
vn -0.9015 -0.3800 0.2071
vn -0.8441 -0.2532 0.4727
vn -0.4323 -0.5883 0.6835
vn -0.7937 -0.5934 -0.1339
vn -0.4734 -0.6862 -0.5523
vn 0.2042 -0.9039 -0.3759
vn 0.5339 -0.8275 -0.1738
vn 0.5210 -0.8535 -0.0075
vn -0.2857 -0.9099 0.3008
vn -0.0689 -0.9961 0.0555
usemtl None
s 1
f 1//1 2//2 3//3 4//4
f 5//5 6//6 7//7 8//8
f 9//9 10//10 11//11 12//12
f 13//13 14//14 10//10 9//9
f 12//12 11//11 15//15 16//16
f 17//17 18//18 19//19 20//20
f 20//20 19//19 21//21 22//22
f 23//23 24//24 25//25 26//26
f 26//26 25//25 27//27 28//28
f 27//27 25//25 29//29 30//30
f 31//31 32//32 33//33 34//34
f 33//33 35//35 36//36 34//34
f 30//30 29//29 37//37 38//38
f 38//38 37//37 39//39 40//40
f 39//39 37//37 41//41 42//42
f 42//42 41//41 43//43 44//44
f 44//44 43//43 45//45 46//46
f 46//46 45//45 47//47 48//48
f 48//48 47//47 49//49 50//50
f 50//50 49//49 51//51 52//52
f 52//52 51//51 53//53 54//54
f 54//54 53//53 55//55 56//56
f 40//40 56//56 55//55 38//38
f 57//57 58//58 3//3 2//2
f 59//59 58//58 18//18 17//17
f 60//60 57//57 61//61 62//62
f 4//4 3//3 58//58 59//59
f 62//62 61//61 63//63 64//64
f 64//64 63//63 65//65 66//66
f 67//67 68//68 69//69 70//70
f 70//70 69//69 71//71 72//72
f 72//72 71//71 73//73 74//74
f 63//63 61//61 15//15 11//11
f 75//75 5//5 8//8 76//76
f 65//65 63//63 11//11 10//10
f 68//68 65//65 10//10 14//14
f 71//71 69//69 76//76 8//8
f 73//73 71//71 8//8 7//7
f 21//21 19//19 77//77 78//78
f 18//18 58//58 57//57 60//60
f 61//61 57//57 2//2 15//15
f 16//16 15//15 2//2 1//1
f 78//78 77//77 79//79 80//80
f 80//80 79//79 81//81 82//82
f 77//77 19//19 18//18 60//60
f 79//79 77//77 60//60 62//62
f 81//81 79//79 62//62 64//64
f 72//72 74//74 83//83 84//84
f 82//82 81//81 85//85 86//86
f 66//66 85//85 81//81 64//64
f 87//87 88//88 89//89 90//90
f 67//67 88//88 85//85 66//66
f 70//70 72//72 84//84 89//89
f 89//89 84//84 91//91 90//90
f 84//84 83//83 92//92 91//91
f 93//93 94//94 95//95 96//96
f 96//96 95//95 97//97 98//98
f 99//99 100//100 101//101 102//102
f 103//103 102//102 104//104 105//105
f 98//98 97//97 100//100 99//99
f 91//91 92//92 94//94 93//93
f 22//22 21//21 24//24 23//23
f 25//25 24//24 106//106 29//29
f 29//29 106//106 41//41 37//37
f 33//33 104//104 107//107 35//35
f 32//32 27//27 30//30 105//105
f 104//104 102//102 101//101 107//107
f 108//108 99//99 102//102 103//103
f 109//109 98//98 99//99 108//108
f 53//53 109//109 108//108 55//55
f 55//55 108//108 103//103 38//38
f 33//33 32//32 105//105 104//104
f 38//38 103//103 105//105 30//30
f 28//28 27//27 32//32 31//31
f 110//110 96//96 98//98 109//109
f 51//51 110//110 109//109 53//53
f 111//111 93//93 96//96 110//110
f 49//49 111//111 110//110 51//51
f 90//90 91//91 93//93 111//111
f 70//70 89//89 88//88 67//67
f 86//86 85//85 88//88 87//87
f 69//69 68//68 14//14 76//76
f 66//66 65//65 68//68 67//67
f 75//75 76//76 14//14 13//13
f 49//49 87//87 90//90 111//111
f 86//86 87//87 49//49 47//47
f 82//82 86//86 47//47 45//45
f 80//80 82//82 45//45 43//43
f 78//78 80//80 43//43 41//41
f 78//78 106//106 24//24 21//21
f 106//106 78//78 41//41
f 42//42 44//44 112//112 113//113
f 56//56 40//40 114//114 115//115
f 39//39 42//42 113//113 116//116
f 54//54 56//56 115//115 117//117
f 52//52 54//54 117//117 118//118
f 50//50 52//52 118//118 119//119
f 40//40 39//39 116//116 114//114
f 48//48 50//50 119//119 120//120
f 46//46 48//48 120//120 121//121
f 44//44 46//46 121//121 112//112
f 112//112 122//122 116//116 113//113
f 122//122 115//115 114//114 116//116
f 121//121 123//123 122//122 112//112
f 123//123 117//117 115//115 122//122
f 120//120 119//119 123//123 121//121
f 119//119 118//118 117//117 123//123
f 124//124 125//125 126//126 127//127
f 128//128 129//129 7//7 6//6
f 130//130 131//131 132//132 133//133
f 134//134 130//130 133//133 135//135
f 131//131 136//136 137//137 132//132
f 138//138 139//139 140//140 141//141
f 139//139 142//142 143//143 140//140
f 144//144 145//145 146//146 147//147
f 145//145 148//148 149//149 146//146
f 149//149 150//150 151//151 146//146
f 152//152 153//153 154//154 155//155
f 154//154 153//153 36//36 35//35
f 150//150 156//156 157//157 151//151
f 156//156 158//158 159//159 157//157
f 159//159 160//160 161//161 157//157
f 160//160 162//162 163//163 161//161
f 162//162 164//164 165//165 163//163
f 164//164 166//166 167//167 165//165
f 166//166 168//168 169//169 167//167
f 168//168 170//170 171//171 169//169
f 170//170 172//172 173//173 171//171
f 172//172 174//174 175//175 173//173
f 158//158 156//156 175//175 174//174
f 176//176 127//127 126//126 177//177
f 178//178 138//138 141//141 177//177
f 179//179 180//180 181//181 176//176
f 125//125 178//178 177//177 126//126
f 180//180 182//182 183//183 181//181
f 182//182 184//184 185//185 183//183
f 186//186 187//187 188//188 189//189
f 187//187 190//190 191//191 188//188
f 190//190 74//74 73//73 191//191
f 183//183 132//132 137//137 181//181
f 192//192 193//193 129//129 128//128
f 185//185 133//133 132//132 183//183
f 189//189 135//135 133//133 185//185
f 191//191 129//129 193//193 188//188
f 73//73 7//7 129//129 191//191
f 143//143 194//194 195//195 140//140
f 141//141 179//179 176//176 177//177
f 181//181 137//137 127//127 176//176
f 136//136 124//124 127//127 137//137
f 194//194 196//196 197//197 195//195
f 196//196 198//198 199//199 197//197
f 195//195 179//179 141//141 140//140
f 197//197 180//180 179//179 195//195
f 199//199 182//182 180//180 197//197
f 190//190 200//200 83//83 74//74
f 198//198 201//201 202//202 199//199
f 184//184 182//182 199//199 202//202
f 203//203 204//204 205//205 206//206
f 186//186 184//184 202//202 206//206
f 187//187 205//205 200//200 190//190
f 205//205 204//204 207//207 200//200
f 200//200 207//207 92//92 83//83
f 208//208 209//209 95//95 94//94
f 209//209 210//210 97//97 95//95
f 211//211 212//212 101//101 100//100
f 213//213 214//214 215//215 212//212
f 210//210 211//211 100//100 97//97
f 207//207 208//208 94//94 92//92
f 142//142 144//144 147//147 143//143
f 146//146 151//151 216//216 147//147
f 151//151 157//157 161//161 216//216
f 154//154 35//35 107//107 215//215
f 155//155 214//214 150//150 149//149
f 215//215 107//107 101//101 212//212
f 217//217 213//213 212//212 211//211
f 218//218 217//217 211//211 210//210
f 173//173 175//175 217//217 218//218
f 175//175 156//156 213//213 217//217
f 154//154 215//215 214//214 155//155
f 156//156 150//150 214//214 213//213
f 148//148 152//152 155//155 149//149
f 219//219 218//218 210//210 209//209
f 171//171 173//173 218//218 219//219
f 220//220 219//219 209//209 208//208
f 169//169 171//171 219//219 220//220
f 204//204 220//220 208//208 207//207
f 187//187 186//186 206//206 205//205
f 201//201 203//203 206//206 202//202
f 188//188 193//193 135//135 189//189
f 184//184 186//186 189//189 185//185
f 192//192 134//134 135//135 193//193
f 169//169 220//220 204//204 203//203
f 201//201 167//167 169//169 203//203
f 198//198 165//165 167//167 201//201
f 196//196 163//163 165//165 198//198
f 194//194 161//161 163//163 196//196
f 194//194 143//143 147//147 216//216
f 216//216 161//161 194//194
f 160//160 221//221 222//222 162//162
f 174//174 223//223 224//224 158//158
f 159//159 225//225 221//221 160//160
f 172//172 226//226 223//223 174//174
f 170//170 227//227 226//226 172//172
f 168//168 228//228 227//227 170//170
f 158//158 224//224 225//225 159//159
f 166//166 229//229 228//228 168//168
f 164//164 230//230 229//229 166//166
f 162//162 222//222 230//230 164//164
f 222//222 221//221 225//225 231//231
f 231//231 225//225 224//224 223//223
f 230//230 222//222 231//231 232//232
f 232//232 231//231 223//223 226//226
f 229//229 230//230 232//232 228//228
f 228//228 232//232 226//226 227//227
